<?xml version="1.0" encoding="UTF-8"?>
<svg width="700pt" height="700pt" version="1.1" viewBox="0 0 700 700" xmlns="http://www.w3.org/2000/svg">
 <path d="m105 52.5h56l62.176 280h-4.4258c-21.656-0.16016-41.781 11.152-52.91 29.734-11.125 18.582-11.59 41.66-1.2227 60.676 10.367 19.016 30.02 31.129 51.664 31.844-4.082 8.2383-6.2305 17.301-6.2812 26.496 0 21.883 11.676 42.102 30.625 53.043 18.949 10.941 42.301 10.941 61.25 0 18.949-10.941 30.625-31.16 30.625-53.043-0.050781-9.1016-2.1523-18.07-6.1406-26.25h91c-3.9922 8.1797-6.0938 17.148-6.1445 26.25 0 16.242 6.4531 31.82 17.938 43.305 11.48 11.488 27.059 17.941 43.301 17.945s31.82-6.4453 43.309-17.926c11.488-11.484 17.945-27.059 17.953-43.301 0.007812-16.242-6.4375-31.824-17.918-43.312-11.48-11.492-27.055-17.953-43.297-17.961h-253.75c-9.3789 0-18.043-5.0039-22.734-13.125-4.6875-8.1211-4.6875-18.129 0-26.25 4.6914-8.1211 13.355-13.125 22.734-13.125h251.75c14.434-0.023438 28.508-4.4961 40.305-12.812 11.797-8.3125 20.746-20.066 25.617-33.648l62.527-175c4.8164-13.406 2.8047-28.32-5.3945-39.969-8.1992-11.648-21.555-18.578-35.797-18.57h-353.17l-9.4688-42.594c-1.6875-7.7891-6-14.758-12.211-19.746-6.2109-4.9883-13.945-7.6914-21.914-7.6602h-56c-6.2539 0-12.031 3.3359-15.156 8.75s-3.125 12.086 0 17.5 8.9023 8.75 15.156 8.75zm192.5 428.75c0 6.9609-2.7656 13.641-7.6875 18.562s-11.602 7.6875-18.562 7.6875-13.641-2.7656-18.562-7.6875-7.6875-11.602-7.6875-18.562 2.7656-13.641 7.6875-18.562 11.602-7.6875 18.562-7.6875 13.641 2.7656 18.562 7.6875 7.6875 11.602 7.6875 18.562zm201.25 0c0 6.9609-2.7656 13.641-7.6875 18.562s-11.602 7.6875-18.562 7.6875-13.641-2.7656-18.562-7.6875-7.6875-11.602-7.6875-18.562 2.7656-13.641 7.6875-18.562 11.602-7.6875 18.562-7.6875 13.641 2.7656 18.562 7.6875 7.6875 11.602 7.6875 18.562zm59.012-358.75c2.8398 0.003906 5.5039 1.3906 7.1367 3.7148 1.6367 2.3242 2.043 5.2969 1.0859 7.9766l-62.527 175c-2.4141 6.8125-6.875 12.707-12.777 16.883-5.8984 4.1719-12.949 6.418-20.176 6.4258h-211.5l-46.637-210z"/>
</svg>
