<?xml version="1.0" encoding="UTF-8"?>
<svg width="700pt" height="700pt" version="1.1" viewBox="0 0 700 700" xmlns="http://www.w3.org/2000/svg">
 <path d="m367.5 525c-150.5 0-262.5-112-262.5-262.5 0-147 108.5-245 210-245 7 0 12.25 3.5 15.75 8.75s3.5 12.25 0 17.5c-63 98-29.75 189 19.25 236.25 47.25 47.25 138.25 82.25 236.25 19.25 5.25-3.5 12.25-3.5 17.5 0s8.75 8.75 8.75 15.75c0 101.5-98 210-245 210zm-84-469c-73.5 19.25-143.5 98-143.5 206.5 0 129.5 98 227.5 227.5 227.5 108.5 0 187.25-70 206.5-143.5-98 45.5-192.5 14-248.5-42-56-54.25-87.5-150.5-42-248.5z"/>
</svg>
