<?xml version="1.0" encoding="UTF-8"?>
<svg width="700pt" height="700pt" version="1.1" viewBox="0 0 700 700" xmlns="http://www.w3.org/2000/svg">
 <path d="m332.5 455v52.5c0 9.6602 7.8398 17.5 17.5 17.5s17.5-7.8398 17.5-17.5v-52.5c0-9.6602-7.8398-17.5-17.5-17.5s-17.5 7.8398-17.5 17.5zm-122.5-59.746-42.246 42.246c-6.8242 6.8242-6.8242 17.922 0 24.746 6.8242 6.8242 17.922 6.8242 24.746 0l42.246-42.246c6.8242-6.8242 6.8242-17.922 0-24.746-6.8242-6.8242-17.922-6.8242-24.746 0zm255.25 24.746 42.246 42.246c6.8242 6.8242 17.922 6.8242 24.746 0 6.8242-6.8242 6.8242-17.922 0-24.746l-42.246-42.246c-6.8242-6.8242-17.922-6.8242-24.746 0-6.8242 6.8242-6.8242 17.922 0 24.746zm-115.25-280c-77.262 0-140 62.738-140 140s62.738 140 140 140 140-62.738 140-140-62.738-140-140-140zm0 35c57.941 0 105 47.059 105 105s-47.059 105-105 105-105-47.059-105-105 47.059-105 105-105zm228.18 87.516-0.68359-0.015625h-52.5c-9.6602 0-17.5 7.8398-17.5 17.5s7.8398 17.5 17.5 17.5h52.5c8.1914 0 15.066-5.6367 16.977-13.23l0.12109-0.55859 0.12109-0.61328 0.089844-0.54297 0.070312-0.54297 0.070313-0.55859 0.035156-0.5625 0.015625-0.55859v-0.61328l-0.015625-0.55859-0.035156-0.54297-0.054688-0.55859-0.070312-0.54297-0.085938-0.54297-0.125-0.64844-0.15625-0.62891-0.15625-0.59375-0.19141-0.61328-0.17578-0.50781-0.19531-0.49219-0.19141-0.48828-0.22656-0.48828-0.22656-0.47266-0.26562-0.47266-0.26172-0.45703-0.26172-0.45312-0.59375-0.875-0.31641-0.42188-0.38281-0.48828-0.42188-0.47266-0.41797-0.47266-0.45703-0.4375-0.48828-0.47266-0.47266-0.42188-0.49219-0.38281-0.48828-0.36719-0.52734-0.36719-0.4375-0.30078-0.4375-0.26172-0.47266-0.26172-0.45313-0.24609-0.49219-0.24219-0.46875-0.21094-0.59766-0.24609-0.61328-0.22656-0.57422-0.19141-0.61328-0.17578-0.63281-0.16016-0.53906-0.12109-0.52734-0.085937-0.54297-0.089844-0.55859-0.070312-0.54297-0.050782zm-455.68 34.984h52.5c9.6602 0 17.5-7.8398 17.5-17.5s-7.8398-17.5-17.5-17.5h-52.5c-9.6602 0-17.5 7.8398-17.5 17.5s7.8398 17.5 17.5 17.5zm367.5-132.75 42.246-42.246c6.8242-6.8242 6.8242-17.922 0-24.746-6.8242-6.8242-17.922-6.8242-24.746 0l-42.246 42.246c-6.8242 6.8242-6.8242 17.922 0 24.746 6.8242 6.8242 17.922 6.8242 24.746 0zm-255.25-24.746-42.246-42.246c-6.8242-6.8242-17.922-6.8242-24.746 0-6.8242 6.8242-6.8242 17.922 0 24.746l42.246 42.246c6.8242 6.8242 17.922 6.8242 24.746 0 6.8242-6.8242 6.8242-17.922 0-24.746zm97.754-87.5v52.5c0 9.6602 7.8398 17.5 17.5 17.5s17.5-7.8398 17.5-17.5v-52.5c0-9.6602-7.8398-17.5-17.5-17.5s-17.5 7.8398-17.5 17.5z" fill-rule="evenodd"/>
</svg>
